<svg xmlns="http://www.w3.org/2000/svg" xmlns:xlink="http://www.w3.org/1999/xlink" viewBox="0,0,256,256" width="96px" height="96px" fill-rule="nonzero"><g fill="#ffffff" fill-rule="nonzero" stroke="none" stroke-width="1" stroke-linecap="butt" stroke-linejoin="miter" stroke-miterlimit="10" stroke-dasharray="" stroke-dashoffset="0" font-family="none" font-weight="none" font-size="none" text-anchor="none" style="mix-blend-mode: normal"><g transform="scale(8,8)"><path d="M16,3c-7.168,0 -13,5.832 -13,13c0,7.168 5.832,13 13,13c7.168,0 13,-5.832 13,-13c0,-7.168 -5.832,-13 -13,-13zM16,5c6.065,0 11,4.935 11,11c0,6.065 -4.935,11 -11,11c-6.065,0 -11,-4.935 -11,-11c0,-6.065 4.935,-11 11,-11zM20.27148,10.07617c-0.073,0.002 -2.51331,-0.13455 -3.94531,4.06445c-0.388,-0.319 -2.22577,-2.51014 -4.25977,-0.99414c-0.73,0.546 -1.21223,1.84731 -0.11523,3.07031c0.653,0.699 1.02942,0.97616 0.85742,1.53516c-0.353,1.148 -2.14084,0.62173 -1.96484,0.05273c0.052,-0.17 0.13519,-0.17291 0.24219,-0.50391c0.298,-0.976 -1.04499,-1.45344 -1.33398,-0.52344c-0.166,0.542 0.09152,1.52122 1.47852,1.94922c1.624,0.499 2.99836,-0.38606 3.19336,-1.53906c0.124,-0.722 -0.20278,-1.25822 -0.80078,-1.94922l-0.48633,-0.53906c-0.295,-0.297 -0.3968,-0.79859 -0.0918,-1.18359c0.257,-0.326 0.62361,-0.46378 1.22461,-0.30078c0.877,0.238 1.26792,0.84689 1.91992,1.33789c-0.047,0.154 -0.38517,1.2452 -0.70117,3.1582c-0.466,2.446 -0.82305,3.78859 -1.74805,4.55859c-0.186,0.135 -0.45251,0.33366 -0.85351,0.34766c-0.075,0.003 -0.54412,-0.10842 -0.07812,-0.48242c0.587,-0.321 0.26878,-1.33955 -0.57422,-1.31055c-0.38,0.012 -0.95755,0.36844 -0.93555,1.02344c0.022,0.676 0.65156,1.18339 1.60156,1.15039c0.508,-0.017 1.64081,-0.22278 2.75781,-1.55078c1.535,-1.8 1.82719,-3.93747 2.24219,-6.23047c1.991,0.236 2.97623,-0.687 2.99023,-1.375c0.021,-0.936 -1.08038,-0.90312 -1.23437,-0.20312c-0.074,0.34 0.51864,0.64631 0.05664,0.94531c-0.327,0.212 -0.91423,0.36124 -1.74023,0.24024c0.397,-2.19 0.73653,-4.33672 2.26953,-4.38672c0.105,-0.006 0.48709,0.00581 0.49609,0.25781c0.005,0.208 -0.26195,0.37256 -0.25195,0.72656c0.015,0.402 0.31972,0.66444 0.76172,0.64844c0.591,-0.021 0.76,-0.59462 0.75,-0.89062c-0.025,-0.696 -0.75756,-1.13452 -1.72656,-1.10352z"></path></g></g></svg>